# xmcd
#
# Track frame offsets:
#	187
#	9925
#	24045
#	36202
#	47220
#	56202
#	70190
#	83697
#	96320
#	109435
#
# Disc length: 1618 seconds
#
# Revision: 2
# Processed by: cddbd v1.5.2PL0 Copyright (c) Steve Scherf et al.
# Submitted via: audiograbber 1.83.01
#
DISCID=7b06500a
DTITLE=Loretta Lynn - Who Was That Stranger
DYEAR=1988
DGENRE=Country
TTITLE0=Who Was That Stranger
TTITLE1=Your Used To Be
TTITLE2=Married Ladies
TTITLE3=You're Gonna Catch Heaven When I Get You Home
TTITLE4=Mountain Climber
TTITLE5=Fly Away
TTITLE6=Walk On Water
TTITLE7=Elzie Banks
TTITLE8=Still In The Ring
TTITLE9=Survivor
EXTD=
EXTT0=
EXTT1=
EXTT2=
EXTT3=
EXTT4=
EXTT5=
EXTT6=
EXTT7=
EXTT8=
EXTT9=
PLAYORDER=
